<svg width="1680" height="396" viewBox="0 0 1680 396" fill="none" xmlns="http://www.w3.org/2000/svg">
<g clip-path="url(#clip0_110_2)">
<path d="M194.4 338.2C151.733 338.2 118.4 326.733 94.4 303.8C70.4 280.867 58.4 248.467 58.4 206.6C58.4 178.067 64 152.867 75.2 131C86.6667 109.133 102.8 92.3333 123.6 80.6C144.4 68.6 168.4 62.6 195.6 62.6C217.733 62.6 239.067 66.6 259.6 74.6L248.8 126.2C230.667 117.933 213.067 113.8 196 113.8C171.733 113.8 152.533 121.8 138.4 137.8C124.267 153.533 117.2 174.6 117.2 201C117.2 227.933 124.667 248.867 139.6 263.8C154.533 278.733 175.2 286.2 201.6 286.2C218.933 286.2 235.733 283.4 252 277.8L260.8 327C241.333 334.467 219.2 338.2 194.4 338.2ZM368.041 338.6C346.174 338.6 328.974 331.933 316.441 318.6C303.907 305.267 297.641 287 297.641 263.8V127H354.041V254.6C354.041 265.533 356.707 274.067 362.041 280.2C367.374 286.067 374.574 289 383.641 289C392.707 289 401.374 286.067 409.641 280.2C418.174 274.333 425.241 266.467 430.841 256.6V127H487.241V333H430.841V305.8C423.107 316.2 414.174 324.333 404.041 330.2C394.174 335.8 382.174 338.6 368.041 338.6ZM540.294 127H596.694V160.6H599.894C607.627 147 615.227 137 622.694 130.6C630.427 124.2 640.027 121 651.494 121C656.294 121 660.294 121.533 663.494 122.6L657.494 183.4C650.56 181.533 644.96 180.6 640.694 180.6C634.56 180.6 629.094 181.8 624.294 184.2C619.76 186.6 615.627 189.8 611.894 193.8C608.427 197.8 603.36 203.933 596.694 212.2V333H540.294V127ZM789.028 339C755.695 339 729.428 329.4 710.228 310.2C691.295 291 681.828 264.333 681.828 230.2C681.828 208.067 685.961 188.867 694.228 172.6C702.495 156.067 714.095 143.4 729.028 134.6C744.228 125.8 761.961 121.4 782.228 121.4C812.095 121.4 835.028 131 851.028 150.2C867.028 169.4 875.028 197.133 875.028 233.4C875.028 239.533 874.895 244.067 874.628 247H738.628C741.295 261.133 747.428 271.933 757.028 279.4C766.628 286.6 779.561 290.2 795.828 290.2C805.695 290.2 815.961 289 826.628 286.6C837.295 283.933 846.628 280.467 854.628 276.2L863.828 321.4C853.161 327 841.295 331.267 828.228 334.2C815.428 337.4 802.361 339 789.028 339ZM821.028 204.6C820.228 193.133 816.228 184.067 809.028 177.4C801.828 170.467 792.228 167 780.228 167C768.761 167 759.295 170.333 751.828 177C744.628 183.667 740.095 192.867 738.228 204.6H821.028ZM1005.09 333H940.633L941.023 312.492H1005.09C1025.53 312.492 1043.11 307.935 1057.82 298.82C1072.66 289.576 1084.12 276.815 1092.2 260.539C1100.27 244.263 1104.3 225.383 1104.3 203.898V177.336C1104.3 160.93 1101.96 146.086 1097.27 132.805C1092.72 119.523 1086.14 108.195 1077.55 98.8203C1068.95 89.3151 1058.67 82.0234 1046.69 76.9453C1034.84 71.8672 1021.56 69.3281 1006.84 69.3281H939.461V48.625H1006.84C1024.55 48.625 1040.76 51.6849 1055.48 57.8047C1070.32 63.7943 1083.15 72.5182 1093.95 83.9766C1104.89 95.3047 1113.29 108.911 1119.15 124.797C1125.14 140.682 1128.13 158.391 1128.13 177.922V203.898C1128.13 223.43 1125.14 241.138 1119.15 257.023C1113.29 272.909 1104.89 286.516 1093.95 297.844C1083.02 309.172 1070.06 317.896 1055.09 324.016C1040.11 330.005 1023.45 333 1005.09 333ZM951.375 48.625V333H927.352V48.625H951.375ZM1278.52 65.6172L1180.09 333H1155.09L1262.51 48.625H1279.89L1278.52 65.6172ZM1367.98 333L1269.34 65.6172L1267.98 48.625H1285.36L1392.98 333H1367.98ZM1350.4 232.609V253.312H1199.42V232.609H1350.4ZM1642.78 175.578V206.047C1642.78 225.969 1640.18 244.003 1634.97 260.148C1629.89 276.164 1622.47 289.901 1612.7 301.359C1603.07 312.818 1591.48 321.607 1577.94 327.727C1564.4 333.846 1549.16 336.906 1532.23 336.906C1515.7 336.906 1500.59 333.846 1486.92 327.727C1473.38 321.607 1461.73 312.818 1451.96 301.359C1442.2 289.901 1434.64 276.164 1429.3 260.148C1423.97 244.003 1421.3 225.969 1421.3 206.047V175.578C1421.3 155.656 1423.9 137.688 1429.11 121.672C1434.45 105.526 1442 91.724 1451.77 80.2656C1461.53 68.8073 1473.18 60.0182 1486.73 53.8984C1500.27 47.7786 1515.31 44.7188 1531.84 44.7188C1548.77 44.7188 1564.01 47.7786 1577.55 53.8984C1591.09 60.0182 1602.74 68.8073 1612.51 80.2656C1622.27 91.724 1629.76 105.526 1634.97 121.672C1640.18 137.688 1642.78 155.656 1642.78 175.578ZM1618.95 206.047V175.188C1618.95 158.391 1617 143.286 1613.09 129.875C1609.32 116.464 1603.65 105.005 1596.1 95.5C1588.68 85.9948 1579.57 78.7031 1568.76 73.625C1557.95 68.5469 1545.65 66.0078 1531.84 66.0078C1518.43 66.0078 1506.39 68.5469 1495.71 73.625C1485.03 78.7031 1475.92 85.9948 1468.37 95.5C1460.95 105.005 1455.22 116.464 1451.18 129.875C1447.27 143.286 1445.32 158.391 1445.32 175.188V206.047C1445.32 222.974 1447.27 238.208 1451.18 251.75C1455.22 265.161 1461.01 276.685 1468.56 286.32C1476.11 295.826 1485.23 303.117 1495.91 308.195C1506.71 313.273 1518.82 315.812 1532.23 315.812C1546.17 315.812 1558.47 313.273 1569.15 308.195C1579.83 303.117 1588.88 295.826 1596.3 286.32C1603.72 276.685 1609.32 265.161 1613.09 251.75C1617 238.208 1618.95 222.974 1618.95 206.047Z" fill="#C0C0C0"/>
</g>
<defs>
<clipPath id="clip0_110_2">
<rect width="1680" height="396" fill="white"/>
</clipPath>
</defs>
</svg>
